# xmcd
# 
# Track frame offsets:
#     150
#     12360
#     24639
#     40095
#     55677
#     71646
#     83454
#     94845
#     118326
#     127866
#     139416
#     151533
#     164274
#     176667
# 
# Disc length: 2496
# 
# Revision: 6
# Processed by: cddbd v1.5.2PL0 Copyright (c) Steve Scherf et al.
# Submitted via: fre:ac v1.0.31
# 
DISCID=ad09be0e
DTITLE=Lindpriid - Kavaleer
DYEAR=1999
DGENRE=Pop
TTITLE0=Kavaleer
TTITLE1=Meri
TTITLE2=Punane veski
TTITLE3=Hing on täis
TTITLE4=Elu roosides
TTITLE5=Lootus
TTITLE6=Mõtte nukker viis
TTITLE7=Kõikjal sind vaid näen
TTITLE8=Armurõõm
TTITLE9=Veinist magusam
TTITLE10=Ootan sind
TTITLE11=Tütre kiri isale
TTITLE12=Vaid sina, Niina
TTITLE13=Mustlasromanss
EXTD=
EXTT0=
EXTT1=
EXTT2=
EXTT3=
EXTT4=
EXTT5=
EXTT6=
EXTT7=
EXTT8=
EXTT9=
EXTT10=
EXTT11=
EXTT12=
EXTT13=
PLAYORDER=
